<svg version="1.0" xmlns="http://www.w3.org/2000/svg" width="340.000000ptpx" height="341.000000ptpx" viewBox="0 0 340.000000 341.000000" preserveAspectRatio="xMidYMid meet" transform="rotate(0) scale(1, 1)">

<g transform="translate(0.000000,341.000000) scale(0.100000,-0.100000)" fill="#c21ece" stroke="none">
<path d="M3360 3406 c0 -2 7 -9 15 -16 12 -10 15 -10 15 4 0 9 -7 16 -15 16&#10;-8 0 -15 -2 -15 -4z"/>
<path d="M1598 3300 c-26 -10 -83 -38 -127 -64 -44 -25 -82 -46 -85 -46 -3 0&#10;-24 -12 -48 -27 -74 -48 -82 -53 -108 -65 -14 -7 -44 -25 -67 -40 -23 -15 -44&#10;-28 -47 -28 -2 0 -76 -41 -163 -91 -86 -50 -198 -114 -248 -142 -49 -28 -107&#10;-60 -127 -71 -222 -125 -272 -165 -313 -246 l-25 -49 1 -723 c0 -665 2 -726&#10;18 -766 22 -55 89 -134 133 -156 18 -9 47 -25 63 -36 17 -10 46 -27 65 -37 50&#10;-27 314 -181 700 -408 184 -108 357 -206 385 -217 91 -36 173 -19 317 64 31&#10;18 94 55 140 81 46 26 90 52 98 57 40 24 339 200 371 218 75 42 84 47 99 58 8&#10;6 42 26 75 44 172 94 344 199 375 230 20 20 46 55 58 78 l22 43 0 740 0 740&#10;-25 48 c-37 74 -70 101 -252 205 -92 54 -175 101 -183 106 -8 5 -49 29 -90 53&#10;-73 44 -108 64 -200 115 -25 14 -135 78 -245 142 -110 64 -207 120 -215 123&#10;-8 4 -35 19 -60 33 -94 54 -205 67 -292 34z m261 -211 c42 -22 90 -49 106 -60&#10;17 -10 37 -22 45 -26 12 -5 80 -44 180 -103 71 -42 240 -138 260 -148 14 -7&#10;39 -21 55 -32 17 -11 39 -24 50 -29 11 -5 56 -30 99 -56 44 -26 89 -51 100&#10;-56 12 -5 35 -18 51 -29 17 -11 37 -23 45 -26 37 -17 102 -79 123 -117 l22&#10;-42 0 -660 c0 -657 0 -660 -22 -700 -11 -22 -32 -50 -45 -61 -27 -25 -125 -94&#10;-133 -94 -5 0 -560 -321 -605 -350 -31 -19 -145 -85 -155 -89 -5 -2 -33 -19&#10;-62 -37 -28 -19 -54 -34 -57 -34 -3 0 -33 -17 -68 -37 -60 -36 -68 -38 -148&#10;-38 -51 1 -95 6 -110 14 -21 11 -336 195 -380 222 -8 5 -158 92 -332 193 -408&#10;238 -415 242 -448 310 -19 40 -20 66 -22 701 l-3 660 23 42 c21 37 99 113 117&#10;113 4 0 33 15 64 34 31 18 79 46 106 61 28 16 61 35 75 42 14 8 39 23 55 33&#10;17 11 40 24 52 29 12 6 40 22 63 36 22 14 66 39 98 56 31 16 64 34 72 39 21&#10;14 376 218 430 248 96 53 186 50 299 -9z"/>
<path d="M1125 2411 c-127 -18 -263 -124 -325 -251 -12 -25 -27 -54 -33 -65&#10;-6 -11 -13 -66 -15 -122 -5 -109 7 -163 54 -253 30 -57 870 -900 897 -900 11&#10;0 189 171 443 428 400 402 428 431 462 502 33 68 36 84 40 178 4 87 1 113 -18&#10;168 -43 129 -123 218 -249 280 -75 37 -77 38 -196 37 -109 0 -125 -2 -175 -26&#10;-30 -15 -64 -33 -74 -39 -35 -23 -156 -141 -156 -152 0 -14 139 -151 161 -159&#10;11 -3 33 12 65 45 62 63 143 102 199 94 44 -6 97 -30 137 -61 35 -28 70 -111&#10;69 -165 0 -95 -18 -117 -368 -470 -180 -182 -334 -330 -342 -330 -18 0 -293&#10;275 -304 304 -6 15 16 43 109 138 l117 119 -74 75 c-40 41 -82 77 -92 80 -15&#10;5 -45 -20 -130 -105 -60 -61 -117 -111 -125 -111 -24 0 -172 160 -194 209 -37&#10;85 -16 193 48 252 48 45 119 72 167 63 91 -15 115 -34 421 -338 164 -163 302&#10;-296 307 -296 17 0 149 143 149 162 0 11 -123 141 -297 317 -270 270 -371 361&#10;-403 361 -6 0 -21 6 -33 14 -26 17 -172 27 -242 17z"/>
</g>
</svg>